<?xml version="1.0" encoding="UTF-8" standalone="no"?>
<svg xmlns:rdf="http://www.w3.org/1999/02/22-rdf-syntax-ns#" xmlns="http://www.w3.org/2000/svg" height="92pt" width="92pt" version="1.0" xmlns:cc="http://creativecommons.org/ns#" xmlns:xlink="http://www.w3.org/1999/xlink" xmlns:dc="http://purl.org/dc/elements/1.1/">
	<defs>
		<linearGradient id="a">
			<stop stop-color="#ffffff" stop-opacity=".5" offset="0"/>
			<stop stop-color="#ffffff" stop-opacity=".1" offset="1"/>
		</linearGradient>
		<linearGradient id="d" y2="62.299" xlink:href="#a" gradientUnits="userSpaceOnUse" y1="33.61" gradientTransform="matrix(.78479 0 0 1.2742 -25.691 -8.5635)" x2="95.689" x1="59.099"/>
		<linearGradient id="c" y2="241.09" xlink:href="#a" gradientUnits="userSpaceOnUse" y1="208.04" gradientTransform="matrix(1.9777 0 0 .50563 -25.691 -8.5635)" x2="28.179" x1="17.402"/>
		<linearGradient id="b" y2="80.909" xlink:href="#a" gradientUnits="userSpaceOnUse" y1="55.988" gradientTransform="matrix(1.5469 0 0 .64647 -25.691 -8.5635)" x2="87.074" x1="70.063"/>
	</defs>
	<path stroke-linejoin="round" d="m12.463 24.886c2.352 1.226 22.368 5.488 33.972 5.226 16.527 0.262 30.313-6.049 32.927-7.055 0 1.433-2.307 10.273-2.614 15.679 0 5.448 1.83 28.415 2.091 33.711 0.868 6.178 2.704 13.861 4.443 19.077 1.829 3.553-23.563 9.856-34.757 10.456-12.602 0.78-38.937-4.375-37.369-8.366 0-3.968 3.659-13.383 3.659-19.599 0.522-6.025-0.262-23.273-0.262-30.836-0.261-6.78-1.053-12.561-2.09-18.293z" fill-rule="evenodd" stroke="#000000" stroke-width="1pt" fill="#fbd900"/>
	<path d="m10.633 94.659c-5.5851-1.331-7.8786 10.111-1.8288 12.021 6.3678 3.75 29.703 7.06 39.199 6.27 11.101-0.26 31.192-4.44 35.801-8.36 6.134-3.92 5.466-13.066 0-12.021-3.278 3.658-26.699 8.881-36.585 9.411-9.223 0.78-30.749-2.53-36.586-7.321z" fill-rule="evenodd" stroke="#000000" stroke-width="1pt" fill="#fbf3bf"/>
	<path stroke-linejoin="bevel" d="m77.382 34.046c1.245-3.212 9.639-6.972 12.364-7.516 4.686-1.05 12.384-1.388 16.764 4.28 7.94 10.323 6.76 28.626 2.86 34.638-2.78 5.104-9.371 10.282-14.635 11.878-5.151 1.533-12.707 2.661-14.333 3.711-0.35-1.296-1.327-7.388-1.38-9.071 1.95 0.128 7.489-0.893 11.695-1.868 3.902-0.899 6.45-3.274 9.333-6.222 5-4.7 4.35-21.16 0.54-25.057-2.233-2.262-6.849-3.904-9.915-3.323-4.992 1.032-13.677 7.366-13.677 6.98-0.508-2.08-0.25-6.159 0.384-8.43z" fill-rule="evenodd" stroke="#000000" stroke-width="1.25" fill="#fbf3bf"/>
	<path stroke-linejoin="round" d="m32.022 38.368c1.655 1.206-1.355 16.955-0.942 28.131 0.414 14.295 1.444 23.528-0.521 24.635-3.108 1.675-9.901-0.135-12.046-2.42-1.273-1.507 1.806-10.24 2.013-16.429-0.414-8.711-1.703-33.303-0.461-34.778 2.252-2.053 9.681-1.152 11.957 0.861z" fill-rule="evenodd" stroke="#000000" stroke-width="1.25" fill="#fbe600"/>
	<path d="m40.612 39.037c-1.478 1.424-0.063 19.625-0.063 22.559 0.305 3.808-1.101 27.452-0.178 28.954 1.848 2.122 10.216 2.442 13.001-0.356 1.505-1.875-0.478-22.544-0.478-27.68 0-5.51 1.407-22.052-0.44-23.58-2.033-2.149-8.44-3.18-11.842 0.103z" fill-rule="evenodd" stroke="#000000" stroke-width="1pt" fill="#fbe600"/>
	<path stroke-linejoin="round" d="m60.301 37.593c-1.658 1.256 1.179 15.8 1.194 26.982 0.137 14.299-1.245 24.662 0.824 25.709 3.268 1.578 10.881-1.542 13-3.891 1.253-1.545-1.411-10.179-2.082-16.358-0.984-8.164 0.148-33.128-1.189-34.564-2.402-1.984-9.482 0.04-11.747 2.122z" fill-rule="evenodd" stroke="#000000" stroke-width="1.25" fill="#fbe600"/>
	<path d="m53.582 31.12c-4.989 1.109-36.588-3.141-39.729-4.804 0.924 4.62 3.141 45.272 1.663 49.892 0.185 2.032-3.88 15.152-3.695 17.924 17.184-68.37 39.728-48.968 41.761-63.012z" fill-rule="evenodd" fill="url(#d)"/>
	<path d="m10.027 95.309c-3.0515-0.897-5.2053 6.821-2.872 9.151 5.743 2.69 13.282-2.33 38.23-1.61-12.743-0.36-31.589-2.874-35.358-7.541z" fill-rule="evenodd" fill="url(#c)"/>
	<path d="m78.59 33.567c4.487-4.488 8.794-5.564 13.999-6.462 8.791-2.333 14.901 3.769 16.871 11.846-4.49-7.179-10.23-8.256-14.178-8.436-4.128 0.718-15.795 7.898-16.872 9.154s-0.718-4.128 0.18-6.102z" fill-rule="evenodd" fill="url(#b)"/>
	<path stroke-linejoin="round" d="m11.408 77.34c2.3832 1.159 4.2811-1.5693 3.4649-3.0303 0.91503 0.08658 1.7948-0.3254 1.7948-1.7948 0.72044-0.72044-0.36461-1.8544-0.36461-2.7357-0.99354-0.99354 0.0056-2.165 0.0056-3.7257 0-1.5535 0.89742-2.5024 0.89742-4.1281 0-2.3611 2.0594-1.1807 0.89742-4.6666 1.0882-0.42455 2.2741-1.4845 0.89742-2.6923 2.1601-0.23952 3.2186-2.3542 0.53845-4.6666 4.0734 0-4.2302-8.7305 2.6923-6.9999 2.222-0.55551 1.7948-2.2151 1.7948-4.3076 2.8717 3.9487 6.8954 2.6213 7.5383 0 1.3486 4.3998 10.59 2.5869 10.59-2.8717 0.17948 6.7502 7.1177 3.4046 8.4358 3.9486-1.6154 1.8662 1.5841 9.0796 4.3076 9.1537-6.3097 4.7323-5.1729 13.001 2.5128 14.538 3.8938 0 5.3845-3.2785 5.3845-7.8973 1.2564 2.6447 6.972 4.2797 6.9999-0.17948 2.8717 5.5446 6.4959-1.4704 4.3076-2.1538 5.0256 1.9057 3.2128-6.9811 1.3785-9.056 2.8718-0.91448 1.8346-7.6184 0.0574-9.7898 2.6212 2.6652 6.7385-0.83112 6.282-5.923 1.228 3.4671 9.1475-0.36828 3.7692-8.4358 0-1.5451-4.4871-1.7488-5.564-0.53845-0.01541-5.4461-4.0997-9.6921-6.9999-8.6152 1.799-2.6932-9.048-4.8999-11.308-0.539 1.351-5.7012-13.81-9.3336-14.179-6.1029-1.748-2.5128-11.771-2.5586-14.718 6.2819 0-4.8606-16.309-6.9999-15.974 0.35897-3.4899-2.4331-9.2274 0.35897-8.7947 3.2307-5.3845-2.7034-7.842 9.5611-3.4102 10.231-2.5128 2.2624-2.6923 11.311 0.53845 11.128-1.9743 2.1297-0.89742 8.4366 1.2564 8.6152-1.6794 2.3206 0.2457 13.674 7.1794 11.846 0 2.5234 0.70877 4.6941-0.17948 7.3588 0 1.5455-0.89742 2.8528-0.89742 4.4871 0.37206 0.74412-1.2597 2.7244 0.53845 3.9486-4.2167 1.7593-3.3024 4.4642-1.6701 5.7226z" fill-rule="evenodd" stroke="#000000" stroke-width="1pt" fill="#ffffff"/>
	<path stroke-linejoin="round" d="m11.317 32.574c-1.5098-1.65 1.221-7.04 4.242-6.763 0.689-2.474 2.586-2.892 4.688-2.187-1.048-2.045 1.503-3.992 3.75-1.682 1.517-2.622 4.677-4.645 6.356-3.231-0.132-3.373 6.063-6.794 8.331-3.837 0 0.606-0.362 1.875 0 1.875" stroke="#000000" stroke-linecap="round" stroke-width="1pt" fill="none"/>
	<path stroke-linejoin="round" d="m48.372 22.374c-0.104-4.721 14.009-8.591 11.25-0.313 1.269-0.634 6.875-1.299 5.844 2.314 4.123-0.466 10.39 1.104 6.662 6.688 2.396 1.806 1.331 6.696-0.319 5.061" stroke="#000000" stroke-linecap="round" stroke-width="1pt" fill="none"/>
</svg>
